<svg id="Layer_1" data-name="Layer 1" xmlns="http://www.w3.org/2000/svg" viewBox="0 0 379 186.75"><defs><style>.cls-1{fill:none;}.cls-2{fill:#0da899;}</style></defs><title>logo_vdef</title><rect class="cls-1" x="64.61" y="36.42" width="3.44" height="36.65"/><polygon class="cls-1" points="78.95 43.93 85.87 73.07 88.09 73.07 95.1 43.89 95.83 73.07 98.68 73.07 97.77 36.42 94.33 36.42 86.96 68.23 79.72 36.42 76.28 36.42 75.38 73.07 78.23 73.07 78.95 43.93"/><polygon class="cls-1" points="163.85 80.88 139.61 114.12 142.76 114.12 164.7 84.45 179.9 109.57 160.54 109.57 157.72 114.07 182.47 114.07 182.55 114.21 205.36 150.53 208.75 150.53 165.47 80.88 163.85 80.88"/><path class="cls-1" d="M350.66,169.86q-5.16,0-7.22,3t-2.06,8.48v14.57q0,5.38,2.06,8.41t7.22,3q4.8,0,6.74-2.85t1.95-8.1V194.2h-3.26v2.4a12.82,12.82,0,0,1-1.09,6q-1.09,2-4.3,2t-4.55-1.95q-1.29-1.94-1.29-6.2V180.81a18.18,18.18,0,0,1,.45-4.46,4.93,4.93,0,0,1,1.72-2.74,5.83,5.83,0,0,1,3.67-1,5.48,5.48,0,0,1,3.39.91,4.44,4.44,0,0,1,1.58,2.56,18.39,18.39,0,0,1,.41,4.28v2.13h3.26v-2.22q0-5.07-2-7.74T350.66,169.86Z" transform="translate(-110.5 -56.63)"/><polygon class="cls-1" points="64.73 81.01 40.76 114.01 130.29 114.01 154.31 81.01 64.73 81.01"/><polygon class="cls-1" points="109.17 43.93 116.1 73.07 118.31 73.07 125.32 43.89 126.05 73.07 128.9 73.07 127.99 36.42 124.56 36.42 117.18 68.23 109.94 36.42 106.5 36.42 105.6 73.07 108.45 73.07 109.17 43.93"/><path class="cls-1" d="M255.32,130.14q5.11,0,7.24-2.92t2.13-8.3V103.68q0-5.29-2.17-8.14t-7.19-2.85q-5.11,0-7.28,2.83t-2.17,8.17v15.2q0,5.38,2.15,8.32T255.32,130.14Zm-6-27.1a10.35,10.35,0,0,1,1.27-5.72q1.27-1.88,4.71-1.88t4.64,1.9a10.52,10.52,0,0,1,1.24,5.7v16.6a10.73,10.73,0,0,1-1.27,5.77q-1.27,2-4.61,2t-4.71-1.95a10.71,10.71,0,0,1-1.27-5.79Z" transform="translate(-110.5 -56.63)"/><polygon class="cls-1" points="216.86 113.59 213.42 113.59 213.42 150.24 227.26 150.24 227.26 147.66 216.86 147.66 216.86 113.59"/><path class="cls-1" d="M447.07,185.28a12.84,12.84,0,0,0,1.13-5.75q0-4.57-2.08-6.94t-7-2.37h-8.28v36.65h3.44v-18H440l5.38,18h3.35l-5.61-18.73A5.34,5.34,0,0,0,447.07,185.28Zm-8.14,1h-4.66V172.8H439q3.35,0,4.59,1.58t1.24,5.16q0,3.53-1.31,5.16T438.92,186.33Z" transform="translate(-110.5 -56.63)"/><path class="cls-1" d="M413.86,170.22l-7.74,36.65h3.35l1.85-9.82h8.73l1.81,9.82h3.39l-7.78-36.65Zm-2,24.34,3.89-19.77,3.89,19.77Z" transform="translate(-110.5 -56.63)"/><polygon class="cls-1" points="277.39 116.17 288.66 116.17 276.4 147.66 276.4 150.24 292.37 150.24 292.37 147.66 279.79 147.66 292.37 115.4 292.37 113.59 277.39 113.59 277.39 116.17"/><path class="cls-1" d="M371.6,170.22l-7.74,36.65h3.35l1.85-9.82h8.73l1.81,9.82H383l-7.78-36.65Zm-2,24.34,3.89-19.77,3.89,19.77Z" transform="translate(-110.5 -56.63)"/><polygon class="cls-2" points="259.07 137.93 266.85 137.93 262.96 118.16 259.07 137.93"/><polygon class="cls-2" points="301.32 137.93 309.1 137.93 305.21 118.16 301.32 137.93"/><path class="cls-2" d="M255.32,127.38q3.35,0,4.61-2a10.73,10.73,0,0,0,1.27-5.77V103a10.52,10.52,0,0,0-1.24-5.7q-1.25-1.9-4.64-1.9t-4.71,1.88a10.35,10.35,0,0,0-1.27,5.72v16.6a10.71,10.71,0,0,0,1.27,5.79Q251.88,127.39,255.32,127.38Z" transform="translate(-110.5 -56.63)"/><path class="cls-2" d="M450.24,56.63H149.76A39.26,39.26,0,0,0,110.5,95.88V204.12a39.26,39.26,0,0,0,39.26,39.26H450.24a39.26,39.26,0,0,0,39.26-39.26V95.88A39.26,39.26,0,0,0,450.24,56.63ZM245.87,103.68q0-5.34,2.17-8.17t7.28-2.83q5,0,7.19,2.85t2.17,8.14v15.25q0,5.38-2.13,8.3t-7.24,2.92q-5.16,0-7.31-2.94t-2.15-8.32ZM217,93h3.44l7.24,31.8L235.05,93h3.44l.9,36.65h-2.85l-.72-29.18-7,29.18H226.6l-6.92-29.14-.72,29.14H216.1Zm-30.22,0h3.44l7.24,31.8L204.83,93h3.44l.9,36.65h-2.85l-.72-29.18-7,29.18h-2.22l-6.92-29.14-.72,29.14h-2.85Zm-11.67,0h3.44v36.65h-3.44Zm-23.85,77.59,24-33H264.8l-24,33Zm164.6,36.52L293,170.83l-.08-.14H268.22l2.81-4.5H290.4L275.2,141.07l-21.94,29.67h-3.15l24.24-33.24H276l43.28,69.65Zm21.91-.29H323.92V170.22h3.44v34.07h10.41Zm21.58-24.38h-3.26v-2.13a18.39,18.39,0,0,0-.41-4.28,4.44,4.44,0,0,0-1.58-2.56,5.48,5.48,0,0,0-3.39-.91,5.83,5.83,0,0,0-3.67,1,4.93,4.93,0,0,0-1.72,2.74,18.18,18.18,0,0,0-.45,4.46v15.61q0,4.25,1.29,6.2t4.55,1.95q3.21,0,4.3-2a12.82,12.82,0,0,0,1.09-6v-2.4h3.26v2.17q0,5.25-1.95,8.1t-6.74,2.85q-5.16,0-7.22-3t-2.06-8.41V181.3q0-5.52,2.06-8.48t7.22-3q4.71,0,6.7,2.67t2,7.74Zm20.27,24.38L377.8,197h-8.73l-1.85,9.82h-3.35l7.74-36.65h3.62L383,206.86ZM402.87,172l-12.58,32.26h12.58v2.58h-16v-2.58l12.26-31.49H387.89v-2.58h15Zm19,34.84L420.06,197h-8.73l-1.85,9.82h-3.35l7.74-36.65h3.62l7.78,36.65Zm23.52,0-5.38-18h-5.75v18h-3.44V170.22h8.28q4.93,0,7,2.38t2.08,6.94a12.84,12.84,0,0,1-1.13,5.75,5.34,5.34,0,0,1-3.94,2.85l5.61,18.73Z" transform="translate(-110.5 -56.63)"/><path class="cls-2" d="M443.54,184.7q1.31-1.63,1.31-5.16t-1.24-5.16q-1.25-1.58-4.59-1.58h-4.75v13.53h4.66Q442.22,186.33,443.54,184.7Z" transform="translate(-110.5 -56.63)"/></svg>